<?xml version="1.0" encoding="UTF-8"?><svg xmlns="http://www.w3.org/2000/svg" xmlns:xlink="http://www.w3.org/1999/xlink" fill-opacity="1" color-rendering="auto" color-interpolation="auto" stroke="black" text-rendering="auto" stroke-linecap="square" width="360" stroke-miterlimit="10" stroke-opacity="1" shape-rendering="auto" fill="black" stroke-dasharray="none" font-weight="normal" stroke-width="1" height="139" font-family="'Dialog'" font-style="normal" stroke-linejoin="miter" font-size="12" stroke-dashoffset="0" image-rendering="auto">
  <!--Generated by ySVG-->
  <defs id="genericDefs"/>
  <g>
    <defs id="defs1">
      <clipPath clipPathUnits="userSpaceOnUse" id="clipPath1">
        <path d="M0 0 L360 0 L360 139 L0 139 L0 0 Z"/>
      </clipPath>
      <clipPath clipPathUnits="userSpaceOnUse" id="clipPath2">
        <path d="M233 161 L593 161 L593 300 L233 300 L233 161 Z"/>
      </clipPath>
      <clipPath clipPathUnits="userSpaceOnUse" id="clipPath3">
        <path d="M0 0 L0 19 L50 19 L50 0 Z"/>
      </clipPath>
    </defs>
    <g fill="white" transform="translate(-233,-161)" stroke="white">
      <rect x="233" width="360" height="139" y="161" clip-path="url(#clipPath2)" stroke="none"/>
    </g>
    <g fill="rgb(89,129,170)" transform="matrix(1,0,0,1,-233,-161)" stroke="rgb(89,129,170)">
      <circle r="5.72" clip-path="url(#clipPath2)" cx="305.24" cy="201.4" stroke="none"/>
    </g>
    <g font-size="16" stroke-linecap="butt" transform="matrix(1,0,0,1,-233,-161) translate(280,209)" fill="rgb(89,129,170)" font-family="'DejaVu Sans'" font-style="italic" stroke="rgb(89,129,170)" stroke-miterlimit="1.45">
      <text x="0" xml:space="preserve" y="15" clip-path="url(#clipPath3)" stroke="none">add</text>
      <text font-style="normal" x="29" xml:space="preserve" y="15" clip-path="url(#clipPath3)" stroke="none">(a)</text>
    </g>
    <g fill="rgb(89,129,170)" stroke-miterlimit="1.45" transform="matrix(1,0,0,1,-233,-161)" stroke-linecap="butt" stroke="rgb(89,129,170)">
      <circle fill="none" r="5.72" clip-path="url(#clipPath2)" cx="305.24" cy="201.4"/>
    </g>
    <g fill="rgb(89,129,170)" fill-opacity="0.3098" transform="matrix(1,0,0,1,-233,-161)" stroke-opacity="0.3098" stroke="rgb(89,129,170)">
      <circle r="5.72" clip-path="url(#clipPath2)" cx="508.608" cy="201.4" stroke="none"/>
    </g>
    <g fill="rgb(72,135,72)" transform="matrix(1,0,0,1,-233,-161)" stroke="rgb(72,135,72)">
      <circle r="5.72" clip-path="url(#clipPath2)" cx="433.328" cy="261.4" stroke="none"/>
    </g>
    <g font-size="16" stroke-linecap="butt" transform="matrix(1,0,0,1,-233,-161)" fill="rgb(72,135,72)" font-family="'DejaVu Sans'" stroke="rgb(72,135,72)" stroke-miterlimit="1.45">
      <text x="402.2186" xml:space="preserve" y="287.9716" clip-path="url(#clipPath2)" stroke="none">TTL = 6</text>
      <circle fill="none" r="5.72" clip-path="url(#clipPath2)" cx="433.328" cy="261.4"/>
    </g>
    <g fill="rgb(89,129,170)" transform="matrix(1,0,0,1,-233,-161)" stroke="rgb(89,129,170)">
      <circle r="5.72" clip-path="url(#clipPath2)" cx="407.256" cy="201.4" stroke="none"/>
    </g>
    <g font-size="16" stroke-linecap="butt" transform="matrix(1,0,0,1,-233,-161)" fill="rgb(89,129,170)" font-family="'DejaVu Sans'" stroke="rgb(89,129,170)" stroke-miterlimit="1.45">
      <text x="376.1466" xml:space="preserve" y="189.9066" clip-path="url(#clipPath2)" stroke="none">TTL = 6</text>
      <circle fill="none" r="5.72" clip-path="url(#clipPath2)" cx="407.256" cy="201.4"/>
    </g>
    <g fill="rgb(89,129,170)" transform="matrix(1,0,0,1,-233,-161)" stroke="rgb(89,129,170)">
      <circle r="5.72" clip-path="url(#clipPath2)" cx="305.24" cy="201.4" stroke="none"/>
    </g>
    <g font-size="16" stroke-linecap="butt" transform="matrix(1,0,0,1,-233,-161)" fill="rgb(89,129,170)" font-family="'DejaVu Sans'" stroke="rgb(89,129,170)" stroke-miterlimit="1.45">
      <text x="269.0408" xml:space="preserve" y="189.9066" clip-path="url(#clipPath2)" stroke="none">TTL = 10</text>
      <circle fill="none" r="5.72" clip-path="url(#clipPath2)" cx="305.24" cy="201.4"/>
    </g>
    <g fill="rgb(72,135,72)" fill-opacity="0.3098" transform="matrix(1,0,0,1,-233,-161)" stroke-opacity="0.3098" stroke="rgb(72,135,72)">
      <circle r="5.72" clip-path="url(#clipPath2)" cx="534.68" cy="261.4" stroke="none"/>
    </g>
    <g stroke-linecap="butt" transform="matrix(1,0,0,1,-233,-161)" stroke-miterlimit="1.45">
      <path fill="none" d="M409.5356 206.6461 L426.6645 246.0652" clip-path="url(#clipPath2)"/>
      <path d="M431.0484 256.1539 L431.7689 242.7568 L420.7631 247.5392 Z" clip-path="url(#clipPath2)" stroke="none"/>
      <path fill="none" stroke-width="2" d="M240.9 201.4 L575.9 201.4" clip-path="url(#clipPath2)" stroke="rgb(89,129,170)"/>
      <path fill="rgb(89,129,170)" stroke-width="2" d="M584.9 201.4 L571.4 195.775 L574.775 201.4 L571.4 207.025 Z" clip-path="url(#clipPath2)" stroke="none"/>
      <path fill="none" stroke-width="2" d="M240.9 261.4 L575.9 261.4" clip-path="url(#clipPath2)" stroke="rgb(72,135,72)"/>
      <path fill="rgb(72,135,72)" stroke-width="2" d="M584.9 261.4 L571.4 255.775 L574.775 261.4 L571.4 267.025 Z" clip-path="url(#clipPath2)" stroke="none"/>
      <path fill="none" stroke-dasharray="0,4" d="M508.608 168.7922 L508.608 195.68" stroke-dashoffset="2" clip-path="url(#clipPath2)" stroke-linecap="round"/>
      <path fill="none" stroke-dasharray="0,4" d="M305.24 168.7922 L305.24 195.68" stroke-dashoffset="2" clip-path="url(#clipPath2)" stroke-linecap="round"/>
      <path fill="none" stroke-dasharray="0,4" d="M313.74 168.2922 L500.108 168.2922" stroke-dashoffset="2" clip-path="url(#clipPath2)" stroke-linecap="round"/>
      <path stroke-dasharray="0,4" d="M305.74 168.2922 L317.74 173.2922 L314.74 168.2922 L317.74 163.2922 Z" stroke-dashoffset="2" clip-path="url(#clipPath2)" stroke-linecap="round" stroke="none"/>
      <path stroke-dasharray="0,4" d="M508.108 168.2922 L496.108 163.2922 L499.108 168.2922 L496.108 173.2922 Z" stroke-dashoffset="2" clip-path="url(#clipPath2)" stroke-linecap="round" stroke="none"/>
      <path fill="none" stroke-dasharray="0,4" d="M534.68 292.3144 L534.68 277.1072 L534.68 277.1072 L534.68 267.12" stroke-dashoffset="2" clip-path="url(#clipPath2)" stroke-linecap="round"/>
      <path fill="none" stroke-dasharray="0,4" d="M433.328 267.12 L433.328 292.3144" stroke-dashoffset="2" clip-path="url(#clipPath2)" stroke-linecap="round"/>
      <path fill="none" stroke-dasharray="0,4" d="M526.18 292.8144 L484.004 292.8144 L484.004 292.8471 L441.8724 292.8471" stroke-dashoffset="2" clip-path="url(#clipPath2)" stroke-linecap="round"/>
      <path stroke-dasharray="0,4" d="M534.18 292.8144 L522.18 287.8144 L525.18 292.8144 L522.18 297.8144 Z" stroke-dashoffset="2" clip-path="url(#clipPath2)" stroke-linecap="round" stroke="none"/>
      <path stroke-dasharray="0,4" d="M433.8724 292.8471 L445.8724 297.8471 L442.8724 292.8471 L445.8724 287.8471 Z" stroke-dashoffset="2" clip-path="url(#clipPath2)" stroke-linecap="round" stroke="none"/>
    </g>
  </g>
</svg>
