<?xml version="1.0" encoding="UTF-8" standalone="no"?>
<svg
   xmlns:dc="http://purl.org/dc/elements/1.1/"
   xmlns:cc="http://creativecommons.org/ns#"
   xmlns:rdf="http://www.w3.org/1999/02/22-rdf-syntax-ns#"
   xmlns:svg="http://www.w3.org/2000/svg"
   xmlns="http://www.w3.org/2000/svg"
   xmlns:sodipodi="http://sodipodi.sourceforge.net/DTD/sodipodi-0.dtd"
   xmlns:inkscape="http://www.inkscape.org/namespaces/inkscape"
   fill-opacity="1"
   color-rendering="auto"
   color-interpolation="auto"
   stroke="black"
   text-rendering="auto"
   stroke-linecap="square"
   width="358"
   stroke-miterlimit="10"
   stroke-opacity="1"
   shape-rendering="auto"
   fill="black"
   stroke-dasharray="none"
   font-weight="normal"
   stroke-width="1"
   height="131"
   font-family="'Dialog'"
   font-style="normal"
   stroke-linejoin="miter"
   font-size="12"
   stroke-dashoffset="0"
   image-rendering="auto"
   id="svg3069"
   version="1.1"
   inkscape:version="0.48.2 r9819"
   sodipodi:docname="sharding-meaning.svg">
  <metadata
     id="metadata3151">
    <rdf:RDF>
      <cc:Work
         rdf:about="">
        <dc:format>image/svg+xml</dc:format>
        <dc:type
           rdf:resource="http://purl.org/dc/dcmitype/StillImage" />
      </cc:Work>
    </rdf:RDF>
  </metadata>
  <sodipodi:namedview
     pagecolor="#ffffff"
     bordercolor="#666666"
     borderopacity="1"
     objecttolerance="10"
     gridtolerance="10"
     guidetolerance="10"
     inkscape:pageopacity="0"
     inkscape:pageshadow="2"
     inkscape:window-width="1280"
     inkscape:window-height="748"
     id="namedview3149"
     showgrid="false"
     inkscape:zoom="3.2122905"
     inkscape:cx="179"
     inkscape:cy="65.5"
     inkscape:window-x="-8"
     inkscape:window-y="-8"
     inkscape:window-maximized="1"
     inkscape:current-layer="g3072" />
  <!--Generated by ySVG-->
  <defs
     id="genericDefs" />
  <g
     id="g3072">
    <defs
       id="defs1">
      <clipPath
         clipPathUnits="userSpaceOnUse"
         id="clipPath1">
        <path
           d="M0 0 L358 0 L358 131 L0 131 L0 0 Z"
           id="path3076" />
      </clipPath>
      <clipPath
         clipPathUnits="userSpaceOnUse"
         id="clipPath2">
        <path
           d="M197 357 L555 357 L555 488 L197 488 L197 357 Z"
           id="path3079" />
      </clipPath>
    </defs>
    <g
       fill="white"
       transform="translate(-197,-357)"
       stroke="white"
       id="g3081">
      <rect
         x="197"
         width="358"
         height="131"
         y="357"
         clip-path="url(#clipPath2)"
         stroke="none"
         id="rect3083" />
    </g>
    <g
       font-size="16"
       stroke-miterlimit="1.45"
       font-family="sans-serif"
       transform="matrix(1,0,0,1,-197,-357)"
       stroke-linecap="butt"
       id="g3085">
      <text
         x="199.22"
         xml:space="preserve"
         y="375.8859"
         clip-path="url(#clipPath2)"
         stroke="none"
         id="text3087">s</text>
      <ellipse
         clip-path="url(#clipPath2)"
         fill="none"
         stroke-dasharray="6,2"
         rx="62.58"
         cx="259.8"
         ry="65"
         cy="422.8"
         id="ellipse3089"
         d="m 322.37999,422.79999 c 0,35.89851 -28.01802,65 -62.58,65 -34.56198,0 -62.58,-29.10149 -62.58,-65 0,-35.89851 28.01802,-65 62.58,-65 34.56198,0 62.58,29.10149 62.58,65 z" />
      <text
         x="247.7422"
         y="394.33911"
         clip-path="url(#clipPath2)"
         xml:space="preserve"
         id="text3091"
         transform="translate(2,-2)"
         style="fill:#5981aa;stroke:none;font-family:DejaVu Sans">s<tspan
   style="font-size:65.00091553%;baseline-shift:sub"
   id="tspan3153">1</tspan></text>
    </g>
    <g
       fill="rgb(89,129,170)"
       stroke-width="2"
       stroke-miterlimit="1.45"
       transform="matrix(1,0,0,1,-197,-357)"
       stroke-linecap="butt"
       stroke="rgb(89,129,170)"
       id="g3093">
      <circle
         fill="none"
         r="23"
         clip-path="url(#clipPath2)"
         cx="257"
         cy="388.8"
         id="circle3095"
         d="m 280,388.79999 c 0,12.70255 -10.29745,23 -23,23 -12.70255,0 -23,-10.29745 -23,-23 0,-12.70255 10.29745,-23 23,-23 12.70255,0 23,10.29745 23,23 z" />
    </g>
    <g
       font-size="16"
       stroke-linecap="butt"
       transform="matrix(1,0,0,1,-197,-357)"
       fill="rgb(72,135,72)"
       font-family="'DejaVu Sans'"
       stroke="rgb(72,135,72)"
       stroke-miterlimit="1.45"
       id="g3097">
      <text
         x="223.7422"
         xml:space="preserve"
         y="445.53909"
         clip-path="url(#clipPath2)"
         id="text3099"
         transform="translate(2,-2)"
         style="stroke:none">s<tspan
   style="font-size:65.00091553%;baseline-shift:sub"
   id="tspan3157">2</tspan></text>
      <circle
         fill="none"
         stroke-width="2"
         r="23"
         clip-path="url(#clipPath2)"
         cx="233"
         cy="440"
         id="circle3101"
         d="m 256,440 c 0,12.70255 -10.29745,23 -23,23 -12.70255,0 -23,-10.29745 -23,-23 0,-12.70255 10.29745,-23 23,-23 12.70255,0 23,10.29745 23,23 z" />
      <text
         x="277.34219"
         xml:space="preserve"
         y="440.33911"
         clip-path="url(#clipPath2)"
         id="text3103"
         transform="translate(2,-2)"
         style="fill:#ff7f2a;stroke:none">s<tspan
   style="font-size:65.00091553%;baseline-shift:sub"
   id="tspan3159">3</tspan></text>
    </g>
    <g
       fill="rgb(255,127,42)"
       stroke-width="2"
       stroke-miterlimit="1.45"
       transform="matrix(1,0,0,1,-197,-357)"
       stroke-linecap="butt"
       stroke="rgb(255,127,42)"
       id="g3105">
      <circle
         fill="none"
         r="23"
         clip-path="url(#clipPath2)"
         cx="286.6"
         cy="434.8"
         id="circle3107"
         d="m 309.60001,434.79999 c 0,12.70255 -10.29745,23 -23,23 -12.70255,0 -23,-10.29745 -23,-23 0,-12.70255 10.29745,-23 23,-23 12.70255,0 23,10.29745 23,23 z" />
    </g>
    <g
       font-size="16"
       stroke-miterlimit="1.45"
       font-family="sans-serif"
       transform="matrix(1,0,0,1,-197,-357)"
       stroke-linecap="butt"
       id="g3109">
      <text
         x="431.58"
         xml:space="preserve"
         y="375.8859"
         clip-path="url(#clipPath2)"
         stroke="none"
         id="text3111">s</text>
      <ellipse
         clip-path="url(#clipPath2)"
         fill="none"
         stroke-dasharray="6,2"
         rx="62.58"
         cx="492.16"
         ry="65"
         cy="422.8"
         id="ellipse3113"
         d="m 554.74001,422.79999 c 0,35.89851 -28.01803,65 -62.58001,65 -34.56198,0 -62.58,-29.10149 -62.58,-65 0,-35.89851 28.01802,-65 62.58,-65 34.56198,0 62.58001,29.10149 62.58001,65 z" />
      <text
         x="514.36"
         y="394.3391"
         clip-path="url(#clipPath2)"
         fill="rgb(89,129,170)"
         font-family="'DejaVu Sans'"
         stroke="none"
         xml:space="preserve"
         id="text3115">s<tspan
   style="font-size:65%;baseline-shift:sub"
   id="tspan3161">1</tspan></text>
    </g>
    <g
       fill="rgb(89,129,170)"
       stroke-dasharray="6,2"
       stroke-miterlimit="1.45"
       transform="matrix(1,0,0,1,-197,-357)"
       stroke-linecap="butt"
       stroke="rgb(89,129,170)"
       id="g3117">
      <circle
         fill="none"
         r="23"
         clip-path="url(#clipPath2)"
         cx="489.36"
         cy="388.8"
         id="circle3119"
         d="m 512.35999,388.79999 c 0,12.70255 -10.29746,23 -23,23 -12.70255,0 -23,-10.29745 -23,-23 0,-12.70255 10.29745,-23 23,-23 12.70254,0 23,10.29745 23,23 z" />
    </g>
    <g
       font-size="16"
       stroke-linecap="butt"
       transform="matrix(1,0,0,1,-197,-357)"
       fill="rgb(72,135,72)"
       font-family="'DejaVu Sans'"
       stroke="rgb(72,135,72)"
       stroke-miterlimit="1.45"
       id="g3121">
      <text
         x="479.8444"
         xml:space="preserve"
         y="469.2266"
         clip-path="url(#clipPath2)"
         stroke="none"
         id="text3123">s<tspan
   style="font-size:65%;baseline-shift:sub"
   id="tspan3163">2</tspan></text>
      <circle
         fill="none"
         stroke-dasharray="6,2"
         r="23"
         clip-path="url(#clipPath2)"
         cx="465.36"
         cy="440"
         id="circle3125"
         d="m 488.35999,440 c 0,12.70255 -10.29746,23 -23,23 -12.70255,0 -23,-10.29745 -23,-23 0,-12.70255 10.29745,-23 23,-23 12.70254,0 23,10.29745 23,23 z" />
      <text
         x="509.70221"
         xml:space="preserve"
         y="440.33911"
         clip-path="url(#clipPath2)"
         id="text3127"
         transform="translate(2,-2)"
         style="fill:#ff7f2a;stroke:none">s<tspan
   style="font-size:65.00091553%;baseline-shift:sub"
   id="tspan3165">3</tspan></text>
    </g>
    <g
       fill="rgb(255,127,42)"
       stroke-dasharray="6,2"
       stroke-miterlimit="1.45"
       transform="matrix(1,0,0,1,-197,-357)"
       stroke-linecap="butt"
       stroke="rgb(255,127,42)"
       id="g3129">
      <circle
         fill="none"
         r="23"
         clip-path="url(#clipPath2)"
         cx="518.96"
         cy="434.8"
         id="circle3131"
         d="m 541.96002,434.79999 c 0,12.70255 -10.29745,23 -23,23 -12.70255,0 -23,-10.29745 -23,-23 0,-12.70255 10.29745,-23 23,-23 12.70255,0 23,10.29745 23,23 z" />
    </g>
    <g
       fill="rgb(89,129,170)"
       stroke-width="2"
       stroke-miterlimit="1.45"
       transform="matrix(1,0,0,1,-197,-357)"
       stroke-linecap="butt"
       stroke="rgb(89,129,170)"
       id="g3133">
      <circle
         fill="none"
         r="8.408"
         clip-path="url(#clipPath2)"
         cx="492.194"
         cy="377.992"
         id="circle3135"
         d="m 500.602,377.992 c 0,4.64361 -3.76439,8.408 -8.408,8.408 -4.64361,0 -8.408,-3.76439 -8.408,-8.408 0,-4.64361 3.76439,-8.408 8.408,-8.408 4.64361,0 8.408,3.76439 8.408,8.408 z" />
      <circle
         fill="none"
         r="8.408"
         clip-path="url(#clipPath2)"
         cx="478.8603"
         cy="392.2914"
         id="circle3137"
         d="m 487.26829,392.29141 c 0,4.64361 -3.76439,8.408 -8.408,8.408 -4.64361,0 -8.408,-3.76439 -8.408,-8.408 0,-4.64361 3.76439,-8.408 8.408,-8.408 4.64361,0 8.408,3.76439 8.408,8.408 z" />
      <circle
         fill="none"
         r="8.408"
         clip-path="url(#clipPath2)"
         cx="497.9257"
         cy="397.0817"
         id="circle3139"
         d="m 506.33369,397.0817 c 0,4.64361 -3.76439,8.408 -8.408,8.408 -4.64361,0 -8.408,-3.76439 -8.408,-8.408 0,-4.64361 3.76439,-8.408 8.408,-8.408 4.64361,0 8.408,3.76439 8.408,8.408 z" />
      <circle
         fill="none"
         r="9.3603"
         clip-path="url(#clipPath2)"
         cx="470.616"
         cy="449.6126"
         stroke="rgb(72,135,72)"
         id="circle3141"
         d="m 479.9763,449.61261 c 0,5.16955 -4.19075,9.3603 -9.3603,9.3603 -5.16955,0 -9.3603,-4.19075 -9.3603,-9.3603 0,-5.16955 4.19075,-9.3603 9.3603,-9.3603 5.16955,0 9.3603,4.19075 9.3603,9.3603 z" />
      <circle
         fill="none"
         r="9.3603"
         clip-path="url(#clipPath2)"
         cx="460.4298"
         cy="430.892"
         stroke="rgb(72,135,72)"
         id="circle3143"
         d="m 469.79011,430.892 c 0,5.16955 -4.19075,9.3603 -9.3603,9.3603 -5.16955,0 -9.3603,-4.19075 -9.3603,-9.3603 0,-5.16955 4.19075,-9.3603 9.3603,-9.3603 5.16955,0 9.3603,4.19075 9.3603,9.3603 z" />
      <path
         fill="none"
         stroke-width="3"
         d="M339.8 422.8 L402.16 422.8"
         clip-path="url(#clipPath2)"
         stroke="black"
         id="path3145" />
      <path
         fill="black"
         stroke-width="3"
         d="M412.16 422.8 L397.16 416.55 L400.91 422.8 L397.16 429.05 Z"
         clip-path="url(#clipPath2)"
         stroke="none"
         id="path3147" />
    </g>
  </g>
</svg>
